<svg width="150" height="150" viewBox="50 50 91 90" xmlns="http://www.w3.org/2000/svg">
    <path d="M50.7822 56.5709C53.9822 58.0277 57.0031 61.0699 58.6267 65.8141C62.9979 78.5876 76.9669 87.2917 89.0721 80.6771C93.8682 78.0564 102.143 80.8895 105.261 90.0026C109.632 102.776 123.601 111.48 135.707 104.866C136.943 104.19 138.41 103.877 139.961 103.94V113.028C135.304 111.554 130.232 111.776 125.451 114.389C120.655 117.01 112.38 114.177 109.262 105.064C104.89 92.2902 90.9213 83.586 78.8161 90.2006C74.02 92.8213 65.7456 89.9882 62.6271 80.8752C60.5045 74.6726 56.1187 69.4294 50.7822 66.4339V56.5709Z" fill="black"/>
    <path d="M59.3031 50.1782C63.2341 53.2534 66.3874 57.6069 68.088 62.5764C71.2066 71.6894 79.481 74.5225 84.277 71.9018C96.3822 65.2872 110.351 73.9913 114.722 86.7648C117.841 95.8778 126.115 98.7109 130.912 96.0902C133.872 94.4724 136.945 93.7709 139.961 93.8213V50.1782H59.3031Z" fill="black"/>
    <path d="M50.7822 79.4435V89.0768C53.5071 91.8709 55.6786 95.3329 56.9884 99.1603C60.107 108.273 68.3814 111.106 73.1774 108.486C85.2826 101.871 99.2517 110.575 103.623 123.349C106.741 132.462 115.016 135.295 119.812 132.674C126.618 128.955 134.013 130.079 139.961 134.045V123.977C136.634 121.935 132.905 121.711 130.246 123.164C118.14 129.779 104.171 121.075 99.8002 108.301C96.6816 99.1884 88.4072 96.3553 83.6112 98.976C71.506 105.591 57.5369 96.8864 53.1657 84.113C52.55 82.3138 51.7334 80.7594 50.7822 79.4435Z" fill="black"/>
    <path d="M103.434 139.357C99.2765 136.266 95.9319 131.76 94.1615 126.587C91.043 117.474 82.7686 114.64 77.9725 117.261C68.0617 122.677 56.9016 117.824 50.7822 108.877V139.357H103.434Z" fill="black"/>
</svg>
